Animals In Love 2007 - 1080x264.mkv.NLsub - Ook NL Audio  


Geniet van de hartverwarmde beelden van verliefde dieren uit alle windrichtingen van onze aarde. Knuffelende olifanten, vlooiende orang-oetangs, baltsende paradijsvogels en nog veel meer. Ook dieren tonen liefde en genegenheid. Een prachtig meeslepend verhaal over het wonder van leven die het hart doet verwarmen. De makers filmden 500 dagen lang op alle continenten en hebben bijzondere beelden van Animals in Love vast weten te leggen.Beleef met de hele familie deze unieke momenten die ons dierenrijk te bieden heeft en laat je meeslepen met de prachtige beelden en het onvergetelijke spektakel van de natuur.

English

The art of seduction is not unique to humanity. Realm of the animal world also has many examples of courtship. Delicacy and subtlety inherent in the relations of males to females. As well as courage and steadfastness in defense of their pairs. In many respects, the animal’s behavior resembles our own, and this journey through a beautiful, fascinating, amusing world of animals in their kingdom of love, remind us of people. This fascinating film will slightly open the veil of the mysteries of love of animals, accompanied by gentle compositions by Philip Glass. 

Bron: BluRay Retail
Formaat: MKV 1080xH.264
Audio: Eng en Nederlands DD5.1
Subs: Nederlands
Bewerking: Kojak


File.Nfo: 

Format : Matroska
File size : 7.52 GiB
Duration : 1h 25mn
Overall bit rate : 12.6 Mbps
Writing application : mkvmerge v3.3.0
Writing library : libebml v0.8.0 + libmatroska v0.9.0

Video

Writing library : x264 core
Format : AVC
Format/Info : Advanced Video Codec
Format profile : High@L4.1
Format settings, CABAC : Yes
Format settings, ReFrames : 3 frames
Codec ID : V_MPEG4/ISO/AVC
Duration : 1h 25mn
Bit rate : 11.1 Mbps
Nominal bit rate : 11.3 Mbps
Width : 1 920 pixels
Height : 1 080 pixels
Display aspect ratio : 16:9
Frame rate : 23.976 fps
Resolution : 24 bits
Colorimetry : 4:2:0
Scan type : Progressive
Bits/(Pixel*Frame) : 0.223
Stream size : 6.60 GiB (88%)


Audio 
Format : AC-3
Format/Info : Audio Coding 3
Codec ID : A_AC3
Duration : 1h 25mn
Bit rate mode : Constant
Bit rate : 640 Kbps
Channel(s) : 6 channels
Channel positions : Front: L C R, Surround: L R, LFE
Sampling rate : 48.0 KHz
Stream size : 390 MiB (5%)
Title : Engels / Nederlands
Language : English / Dutch 


  Category : Video 
  Format : x264HD 
  Source : Retail 
  Subtitle : Dutch subs optional  
  Genre : Documentary  
  Language : English Dutch audio   
  
 
http://www.imdb.com/title/tt0498091/
  Weblink : http://www.mejane.com/trailers/play/13225/Animals_In_Love.html 

TBS
 
MEDIA INFO

General
Complete name                    : Animals_In_Love_-_1080x264.mkv.NLsub_-_Ook_NL_Audio\\1080x264.mkv.NLsub - Ook NL Audio\\Animals In Love.mkv
Format                           : Matroska
File size                        : 7.52 GiB
Duration                         : 1h 25mn
Overall bit rate                 : 12.6 Mbps
Encoded date                     : UTC 2011-04-26 09:45:06
Writing application              : mkvmerge v3.3.0 (\'Language\') built on Mar 24 2010 14:59:24
Writing library                  : libebml v0.8.0 + libmatroska v0.9.0

Video
ID                               : 1
Format                           : AVC
Format/Info                      : Advanced Video Codec
Format profile                   : High@L4.1
Format settings, CABAC           : Yes
Format settings, ReFrames        : 3 frames
Format settings, GOP             : M=4, N=29
Muxing mode                      : Container profile=Unknown@4.1
Codec ID                         : V_MPEG4/ISO/AVC
Duration                         : 1h 25mn
Bit rate mode                    : Variable
Bit rate                         : 11.3 Mbps
Maximum bit rate                 : 18.0 Mbps
Width                            : 1 920 pixels
Height                           : 1 080 pixels
Display aspect ratio             : 16:9
Frame rate                       : 23.976 fps
Color space                      : YUV
Chroma subsampling               : 4:2:0
Bit depth                        : 8 bits
Scan type                        : Progressive
Bits/(Pixel*Frame)               : 0.228
Stream size                      : 6.61 GiB (88%)
Writing library                  : x264 core 104 r1683 62997d6
Encoding settings                : cabac=1 / ref=3 / deblock=1:0:0 / analyse=0x3:0x113 / me=umh / subme=7 / psy=1 / psy_rd=1.00:0.25 / mixed_ref=1 / me_range=16 / chroma_me=1 / trellis=1 / 8x8dct=1 / cqm=0 / deadzone=21,11 / fast_pskip=1 / chroma_qp_offset=-4 / threads=6 / sliced_threads=0 / slices=4 / nr=0 / decimate=1 / interlaced=0 / constrained_intra=0 / bframes=3 / b_pyramid=1 / b_adapt=1 / b_bias=0 / direct=3 / weightb=1 / open_gop=2 / weightp=0 / keyint=24 / keyint_min=2 / scenecut=40 / intra_refresh=0 / rc_lookahead=24 / rc=2pass / mbtree=1 / bitrate=11349 / ratetol=1.0 / qcomp=0.60 / qpmin=10 / qpmax=51 / qpstep=4 / cplxblur=20.0 / qblur=0.5 / vbv_maxrate=18000 / vbv_bufsize=18000 / ip_ratio=1.40 / aq=1:1.00 / nal_hrd=vbr

Audio #1
ID                               : 2
Format                           : AC-3
Format/Info                      : Audio Coding 3
Mode extension                   : CM (complete main)
Codec ID                         : A_AC3
Duration                         : 1h 25mn
Bit rate mode                    : Constant
Bit rate                         : 640 Kbps
Channel(s)                       : 6 channels
Channel positions                : Front: L C R, Side: L R, LFE
Sampling rate                    : 48.0 KHz
Bit depth                        : 16 bits
Stream size                      : 390 MiB (5%)
Title                            : Engels
Language                         : English

Audio #2
ID                               : 3
Format                           : AC-3
Format/Info                      : Audio Coding 3
Mode extension                   : CM (complete main)
Codec ID                         : A_AC3
Duration                         : 1h 25mn
Bit rate mode                    : Constant
Bit rate                         : 640 Kbps
Channel(s)                       : 6 channels
Channel positions                : Front: L C R, Side: L R, LFE
Sampling rate                    : 48.0 KHz
Bit depth                        : 16 bits
Stream size                      : 390 MiB (5%)
Title                            : Nederlands
Language                         : Dutch

Text
ID                               : 4
Format                           : UTF-8
Codec ID                         : S_TEXT/UTF8
Codec ID/Info                    : UTF-8 Plain Text
Title                            : Nederlands
Language                         : Dutch

